<?xml version="1.0" encoding="utf-8"?>
<!-- Generator: Adobe Illustrator 16.0.4, SVG Export Plug-In . SVG Version: 6.00 Build 0)  -->
<!DOCTYPE svg PUBLIC "-//W3C//DTD SVG 1.1//EN" "http://www.w3.org/Graphics/SVG/1.1/DTD/svg11.dtd">
<svg version="1.1"
	 id="svg1537" xmlns:inkscape="http://www.inkscape.org/namespaces/inkscape" xmlns:svg="http://www.w3.org/2000/svg" xmlns:cc="http://creativecommons.org/ns#" xmlns:sodipodi="http://sodipodi.sourceforge.net/DTD/sodipodi-0.dtd" xmlns:rdf="http://www.w3.org/1999/02/22-rdf-syntax-ns#" xmlns:dc="http://purl.org/dc/elements/1.1/" inkscape:version="0.48+devel r12177 custom" sodipodi:docname="rdo-logo.svg"
	 xmlns="http://www.w3.org/2000/svg" xmlns:xlink="http://www.w3.org/1999/xlink" x="0px" y="0px" width="200px" height="25px"
	 viewBox="0 0 200 25" enable-background="new 0 0 200 25" xml:space="preserve">
<sodipodi:namedview  fit-margin-left="0" borderopacity="1.0" inkscape:cy="10.682299" pagecolor="#ffffff" showgrid="false" bordercolor="#666666" inkscape:cx="84.152637" inkscape:zoom="1" fit-margin-top="0" inkscape:current-layer="g2133" fit-margin-bottom="0" fit-margin-right="0" inkscape:document-units="px" inkscape:pageopacity="0.0" inkscape:pageshadow="2" id="base">
	</sodipodi:namedview>
<g id="g2133_1_" transform="translate(-0.5,0)">
	<path id="path2109_1_" inkscape:connector-curvature="0" fill="#333333" d="M0.507,0.299v5.283h9.545
		c2.027,0,3.139,0.452,3.672,0.912h0.008l0.008,0.008c0.585,0.499,0.866,1.02,0.866,2.342c0,0.682-0.106,1.221-0.281,1.672v0.017
		l-0.007,0.008c-0.151,0.397-0.343,0.671-0.646,0.942l-0.008,0.008l-0.007,0.015c-0.213,0.194-0.815,0.546-1.33,0.724
		c-0.618,0.211-1.402,0.312-2.273,0.312H9.56L0.5,12.546V24.7h5.929v-6.88h3.129H9.9c0.959,0.412,1.837,1.025,2.539,1.787
		c0.93,1.009,1.579,2.306,1.84,3.658c0.091,0.469,0.137,0.955,0.137,1.435l3.299-0.009V24.7h3.649c0-0.746-0.106-1.49-0.304-2.211
		c-0.693-2.521-2.538-4.58-4.926-5.572c0.84-0.347,1.661-0.801,2.425-1.453h0.008c0.949-0.799,1.707-1.83,2.174-2.979l0.008-0.022
		c0.465-1.135,0.684-2.364,0.684-3.618c0-2.48-1.021-4.9-2.919-6.416c-1.951-1.57-4.501-2.129-7.42-2.129h-1.042L0.507,0.299
		L0.507,0.299z"/>
	<path id="path2107_1_" inkscape:connector-curvature="0" fill="#333333" d="M22.517,0.299v5.283h6.804
		c1.413,0,2.716,0.141,3.801,0.518c0.945,0.328,1.756,0.766,2.311,1.301c0.512,0.492,1,1.234,1.3,2.021
		c0.31,0.811,0.472,1.887,0.471,2.987c0,1.062-0.159,2.114-0.463,2.926c-0.309,0.822-0.8,1.59-1.323,2.115
		c-0.583,0.584-1.407,1.062-2.326,1.403c-1.073,0.399-2.343,0.562-3.688,0.556h-1.049v-6.863h-5.93V24.7h5.93h1.369
		c1.938,0.008,4.012-0.179,6.066-0.857c1.563-0.52,3.197-1.293,4.606-2.555c1.244-1.113,2.201-2.488,2.836-3.998
		c0.679-1.615,0.912-3.297,0.912-4.873v-0.008c0.001-1.595-0.225-3.312-0.935-4.974c-0.646-1.506-1.623-2.862-2.882-3.944
		c-1.445-1.241-3.086-1.944-4.607-2.417c-2.063-0.641-4.118-0.775-6.013-0.775H29.32H22.517z"/>
	<path id="path6220_1_" inkscape:connector-curvature="0" fill="#333333" d="M57.521,6.046c3.596,0,6.446,2.858,6.446,6.454
		c0,3.598-2.851,6.454-6.446,6.454c-3.597,0-6.455-2.856-6.455-6.454C51.066,8.904,53.925,6.046,57.521,6.046z M57.521,0.116
		c-6.803,0-12.385,5.581-12.385,12.384c0,6.802,5.582,12.384,12.385,12.384S69.898,19.302,69.898,12.5
		C69.898,5.697,64.324,0.116,57.521,0.116z"/>
</g>
<g>
	<path fill="#333333" d="M94.165,20.77v-8.505c0-0.093,0.002-0.199,0.006-0.322s0.008-0.248,0.012-0.375s0.007-0.244,0.011-0.353
		c0.004-0.108,0.01-0.192,0.018-0.254c-0.085,0.263-0.167,0.496-0.248,0.703c-0.081,0.208-0.164,0.407-0.248,0.601L89.7,21.057
		l-4.039-8.792c-0.085-0.191-0.167-0.393-0.248-0.601c-0.081-0.207-0.164-0.44-0.249-0.703c0.008,0.062,0.014,0.146,0.018,0.254
		c0.004,0.106,0.007,0.226,0.011,0.353s0.008,0.252,0.012,0.375s0.006,0.229,0.006,0.322v8.505h-3.196V4.221h3.242l4.062,9.128
		c0.085,0.199,0.162,0.392,0.231,0.57c0.069,0.18,0.135,0.367,0.196,0.561c0.062-0.191,0.127-0.379,0.196-0.561
		c0.069-0.181,0.146-0.371,0.23-0.57l4.131-9.128h3.046V20.77H94.165L94.165,20.77z"/>
	<path fill="#333333" d="M112.484,20.77l-1.281-3.429h-6.381l-1.271,3.429h-3.428l6.336-16.548h3.115l6.336,16.548H112.484z
		 M108.537,10.129c-0.084-0.199-0.174-0.438-0.27-0.716c-0.1-0.276-0.182-0.534-0.248-0.772c-0.062,0.238-0.145,0.496-0.244,0.772
		c-0.101,0.276-0.191,0.517-0.275,0.716l-1.639,4.305h4.305L108.537,10.129z"/>
	<path fill="#333333" d="M129.027,20.77l-6.566-9.646c-0.107-0.161-0.225-0.358-0.352-0.595c-0.127-0.234-0.238-0.451-0.33-0.651
		c0.021,0.177,0.041,0.385,0.053,0.623c0.012,0.237,0.018,0.446,0.018,0.623v9.646h-3.174V4.221h3l6.404,9.531
		c0.1,0.154,0.215,0.348,0.346,0.577c0.131,0.231,0.246,0.454,0.348,0.67c-0.021-0.224-0.041-0.448-0.053-0.676
		s-0.018-0.417-0.018-0.571V4.221h3.162V20.77H129.027L129.027,20.77z"/>
	<path fill="#333333" d="M146.988,20.77l-1.281-3.429h-6.381l-1.27,3.429h-3.43l6.336-16.548h3.115l6.336,16.548H146.988z
		 M143.041,10.129c-0.084-0.199-0.174-0.438-0.27-0.716c-0.1-0.276-0.182-0.534-0.248-0.772c-0.062,0.238-0.145,0.496-0.244,0.772
		s-0.191,0.517-0.275,0.716l-1.639,4.305h4.305L143.041,10.129z"/>
	<path fill="#333333" d="M158.719,21.057c-0.854,0-1.627-0.111-2.318-0.334c-0.691-0.224-1.309-0.531-1.848-0.924
		c-0.537-0.392-1.004-0.859-1.396-1.4c-0.392-0.543-0.716-1.129-0.97-1.76c-0.254-0.632-0.44-1.3-0.563-2.004
		c-0.123-0.703-0.187-1.417-0.187-2.141c0-0.669,0.063-1.346,0.19-2.031s0.322-1.344,0.588-1.979
		c0.267-0.635,0.597-1.229,0.992-1.783c0.396-0.555,0.865-1.034,1.408-1.442c0.541-0.407,1.153-0.729,1.834-0.963
		c0.682-0.235,1.438-0.353,2.268-0.353c0.802,0,1.507,0.101,2.117,0.3c0.613,0.2,1.154,0.464,1.627,0.791
		c0.476,0.327,0.886,0.704,1.236,1.131c0.35,0.427,0.665,0.867,0.95,1.321l-2.815,1.604c-0.185-0.275-0.385-0.54-0.601-0.79
		c-0.215-0.25-0.446-0.472-0.696-0.663c-0.25-0.191-0.524-0.345-0.826-0.455c-0.299-0.111-0.631-0.168-0.992-0.168
		c-0.516,0-0.969,0.078-1.36,0.236c-0.394,0.157-0.735,0.373-1.032,0.646c-0.296,0.272-0.543,0.59-0.744,0.951
		c-0.199,0.362-0.36,0.746-0.483,1.154c-0.123,0.407-0.211,0.825-0.267,1.252c-0.056,0.428-0.08,0.842-0.08,1.24
		c0,0.698,0.072,1.38,0.22,2.036c0.146,0.658,0.379,1.242,0.696,1.755c0.319,0.512,0.731,0.922,1.235,1.229
		c0.505,0.307,1.108,0.461,1.815,0.461c0.4,0,0.775-0.07,1.125-0.214c0.351-0.143,0.656-0.335,0.918-0.575
		c0.263-0.242,0.468-0.529,0.617-0.859c0.149-0.331,0.226-0.686,0.226-1.062v-0.138h-2.813v-3.035h6.067v2.435
		c0,1.062-0.155,2-0.474,2.812c-0.313,0.812-0.748,1.492-1.297,2.042c-0.551,0.552-1.198,0.97-1.944,1.252
		C160.396,20.915,159.588,21.057,158.719,21.057z"/>
	<path fill="#333333" d="M168.164,20.77V4.221h11.299v3.034h-8.102v3.474h4.766v3.023h-4.766v3.993h8.598v3.022h-11.795V20.77
		L168.164,20.77z"/>
	<path fill="#333333" d="M183.148,20.77V4.221h7.686c1.047,0,1.922,0.145,2.625,0.434c0.705,0.287,1.271,0.671,1.703,1.147
		c0.43,0.478,0.738,1.026,0.924,1.649c0.184,0.623,0.275,1.273,0.275,1.949c0,0.471-0.066,0.945-0.201,1.427
		c-0.135,0.479-0.336,0.937-0.605,1.366c-0.269,0.431-0.604,0.823-1.004,1.172c-0.4,0.351-0.865,0.621-1.396,0.814l3.207,6.588
		h-3.588l-3.094-6.175h-3.334v6.175h-3.197V20.77L183.148,20.77z M190.881,11.57c0.408,0,0.75-0.06,1.027-0.178
		c0.277-0.119,0.5-0.279,0.668-0.479c0.17-0.199,0.291-0.431,0.365-0.692c0.072-0.261,0.107-0.533,0.107-0.818
		c0-0.262-0.031-0.521-0.1-0.778c-0.064-0.258-0.18-0.488-0.342-0.692c-0.162-0.203-0.383-0.367-0.664-0.49
		c-0.277-0.123-0.637-0.186-1.064-0.186h-4.533v4.316h4.534L190.881,11.57L190.881,11.57z"/>
</g>
</svg>
