<?xml version="1.0" encoding="utf-8"?>
<!-- Generator: Adobe Illustrator 16.0.4, SVG Export Plug-In . SVG Version: 6.00 Build 0)  -->
<!DOCTYPE svg PUBLIC "-//W3C//DTD SVG 1.1//EN" "http://www.w3.org/Graphics/SVG/1.1/DTD/svg11.dtd">
<svg version="1.1" id="Layer_1" xmlns="http://www.w3.org/2000/svg" xmlns:xlink="http://www.w3.org/1999/xlink" x="0px" y="0px"
	 width="132px" height="126px" viewBox="0 0 132 126" enable-background="new 0 0 132 126" xml:space="preserve">
<g>
	<g>
		
			<image overflow="visible" width="431" height="382" xlink:href="A2553AE0E14DCD26.png"  transform="matrix(0.24 0 0 0.24 -21.3281 20.7329)">
		</image>
	</g>
	<g>
		
			<image overflow="visible" width="342" height="341" xlink:href="A2553AE0E14DCD2A.png"  transform="matrix(0.24 0 0 0.24 -10.7729 30.7104)">
		</image>
	</g>
	<g>
		<g>
			<g enable-background="new    ">
				<g enable-background="new    ">
					<defs>
						<path id="SVGID_1_" enable-background="new    " d="M80.18,60.375l-8.485-8.376c1.19-0.104,2.141-1.133,2.145-2.312
							l8.469,8.385C82.299,59.249,81.351,60.273,80.18,60.375z"/>
					</defs>
					<clipPath id="SVGID_2_">
						<use xlink:href="#SVGID_1_"  overflow="visible"/>
					</clipPath>
					<g clip-path="url(#SVGID_2_)" enable-background="new    ">
						<path fill="#BB3727" d="M80.18,60.375l-8.485-8.376c0.045,0,0.094-0.006,0.118-0.006l8.486,8.374
							C80.251,60.366,80.209,60.368,80.18,60.375"/>
						<path fill="#BD3827" d="M80.299,60.365l-8.486-8.374c0.123-0.02,0.226-0.05,0.322-0.067l8.472,8.375
							C80.507,60.326,80.404,60.354,80.299,60.365"/>
						<path fill="#C23A28" d="M80.606,60.299l-8.472-8.375c0.17-0.049,0.301-0.111,0.447-0.187l8.468,8.374
							C80.918,60.181,80.771,60.248,80.606,60.299"/>
						<path fill="#BD3827" d="M81.05,60.111l-8.468-8.374c0.093-0.057,0.209-0.113,0.289-0.178l8.466,8.374
							C81.261,59.996,81.164,60.058,81.05,60.111"/>
						<path fill="#BB3727" d="M81.337,59.934l-8.466-8.374c0.05-0.053,0.108-0.092,0.172-0.141l8.468,8.391
							C81.447,59.846,81.41,59.889,81.337,59.934"/>
						<path fill="#B63527" d="M81.511,59.811l-8.468-8.391c0.029-0.036,0.078-0.081,0.124-0.11l8.473,8.378
							C81.587,59.722,81.536,59.759,81.511,59.811"/>
						<path fill="#B43327" d="M81.64,59.687l-8.473-8.378c0.016-0.045,0.063-0.077,0.102-0.111l8.473,8.368
							C81.693,59.612,81.656,59.641,81.64,59.687"/>
						<path fill="#B13126" d="M81.741,59.565l-8.473-8.368c0.021-0.047,0.045-0.073,0.08-0.121l8.47,8.379
							C81.78,59.503,81.777,59.53,81.741,59.565"/>
						<path fill="#AE3125" d="M81.818,59.457l-8.47-8.379c0.035-0.028,0.064-0.063,0.066-0.104l8.487,8.384
							C81.885,59.387,81.854,59.429,81.818,59.457"/>
						<path fill="#AA3025" d="M81.902,59.357l-8.487-8.384c0.033-0.028,0.059-0.069,0.088-0.103l8.466,8.384
							C81.943,59.286,81.917,59.319,81.902,59.357"/>
						<path fill="#A72D24" d="M81.969,59.254l-8.466-8.384c0.025-0.041,0.032-0.069,0.044-0.103l8.479,8.368
							C82.023,59.179,81.995,59.215,81.969,59.254"/>
						<path fill="#A22C23" d="M82.026,59.136l-8.479-8.368c0.025-0.042,0.052-0.069,0.068-0.116l8.472,8.38
							C82.064,59.073,82.04,59.11,82.026,59.136"/>
						<path fill="#9D2C22" d="M82.087,59.032l-8.472-8.38c0.024-0.031,0.044-0.069,0.044-0.109l8.485,8.385
							C82.126,58.961,82.107,59.01,82.087,59.032"/>
						<path fill="#9A2C21" d="M82.145,58.927l-8.485-8.385c0.01-0.025,0.028-0.077,0.045-0.107l8.47,8.383
							C82.157,58.852,82.148,58.889,82.145,58.927"/>
						<path fill="#972920" d="M82.174,58.818l-8.47-8.383c0.019-0.037,0.035-0.085,0.055-0.117l8.464,8.383
							C82.203,58.737,82.189,58.771,82.174,58.818"/>
						<path fill="#942820" d="M82.223,58.702l-8.464-8.383c0.007-0.042,0.022-0.084,0.022-0.122l8.482,8.375
							C82.247,58.611,82.234,58.652,82.223,58.702"/>
						<path fill="#90261E" d="M82.264,58.572l-8.482-8.375c0-0.045,0.007-0.095,0.017-0.141l8.475,8.383
							C82.272,58.482,82.272,58.521,82.264,58.572"/>
						<path fill="#8D241D" d="M82.272,58.439l-8.475-8.383c0.013-0.045,0.015-0.089,0.028-0.15l8.469,8.373
							C82.286,58.335,82.276,58.396,82.272,58.439"/>
						<path fill="#8A241C" d="M82.295,58.279l-8.469-8.373c0.007-0.06,0.009-0.116,0.009-0.174l8.473,8.378
							C82.302,58.173,82.299,58.23,82.295,58.279"/>
						<path fill="#87241B" d="M82.308,58.11l-8.473-8.378c0.004-0.011,0.004-0.024,0.004-0.046l8.469,8.385
							C82.302,58.088,82.308,58.093,82.308,58.11"/>
					</g>
				</g>
				<g>
					<g>
						<polygon fill="#8A241C" points="82.313,55.121 73.842,46.741 86.661,45.61 95.127,53.998 						"/>
					</g>
					<g>
						<polygon fill="#8A241C" points="82.313,55.121 73.842,46.741 86.661,45.61 95.127,53.998 						"/>
					</g>
				</g>
				<g>
					<polygon fill="#8A241C" points="82.308,58.071 73.839,49.686 73.842,46.741 82.313,55.121 					"/>
				</g>
				<g>
					<polygon fill="#C33A28" points="48.611,63.14 40.145,54.766 71.694,51.998 80.18,60.375 					"/>
				</g>
				<g enable-background="new    ">
					<defs>
						<path id="SVGID_3_" enable-background="new    " d="M47.054,62.601c-0.127-0.128-0.294-0.288-0.426-0.418
							c-2.67-2.658-5.361-5.307-8.043-7.969c0.391,0.389,0.944,0.605,1.56,0.552l8.466,8.374
							C47.993,63.196,47.445,62.984,47.054,62.601z"/>
					</defs>
					<clipPath id="SVGID_4_">
						<use xlink:href="#SVGID_3_"  overflow="visible"/>
					</clipPath>
					<g clip-path="url(#SVGID_4_)" enable-background="new    ">
						<path fill="#942820" d="M47.054,62.601l-8.469-8.387c0.032,0.043,0.054,0.061,0.095,0.08l8.466,8.396
							C47.111,62.646,47.089,62.633,47.054,62.601"/>
						<path fill="#972920" d="M47.146,62.689l-8.466-8.396c0.037,0.043,0.078,0.084,0.126,0.114l8.479,8.383
							C47.234,62.759,47.186,62.715,47.146,62.689"/>
						<path fill="#9A2C21" d="M47.285,62.791l-8.479-8.383c0.043,0.034,0.083,0.052,0.123,0.083l8.483,8.384
							C47.36,62.845,47.321,62.823,47.285,62.791"/>
						<path fill="#9D2C22" d="M47.413,62.875l-8.483-8.384c0.053,0.029,0.086,0.047,0.128,0.074l8.484,8.381
							C47.488,62.926,47.449,62.896,47.413,62.875"/>
						<path fill="#A22C23" d="M47.542,62.946l-8.484-8.381c0.051,0.017,0.086,0.035,0.125,0.062l8.481,8.376
							C47.613,62.984,47.579,62.959,47.542,62.946"/>
						<path fill="#A72D24" d="M47.663,63.003l-8.481-8.376c0.052,0.014,0.092,0.023,0.132,0.041l8.475,8.382
							C47.741,63.031,47.705,63.015,47.663,63.003"/>
						<path fill="#AA3025" d="M47.789,63.05l-8.475-8.382c0.045,0.016,0.089,0.034,0.13,0.038l8.468,8.378
							C47.867,63.073,47.83,63.066,47.789,63.05"/>
						<path fill="#AE3125" d="M47.912,63.084l-8.468-8.378c0.039,0.011,0.094,0.019,0.138,0.032l8.466,8.38
							C48.002,63.109,47.962,63.095,47.912,63.084"/>
						<path fill="#B13126" d="M48.047,63.118l-8.466-8.38c0.038,0.008,0.086,0.018,0.144,0.026l8.468,8.37
							C48.152,63.134,48.096,63.133,48.047,63.118"/>
						<path fill="#B43327" d="M48.194,63.134l-8.468-8.37c0.048,0.002,0.095,0.002,0.146,0.003l8.47,8.378
							C48.289,63.145,48.245,63.14,48.194,63.134"/>
						<path fill="#B63527" d="M48.342,63.145l-8.47-8.378c0.054,0.001,0.108,0.001,0.165,0.001l8.485,8.376
							C48.464,63.145,48.404,63.147,48.342,63.145"/>
						<path fill="#BB3727" d="M48.522,63.145l-8.485-8.376c0.038-0.002,0.065-0.002,0.108-0.002l8.466,8.374
							C48.584,63.145,48.542,63.145,48.522,63.145"/>
					</g>
				</g>
				<g enable-background="new    ">
					<defs>
						<path id="SVGID_5_" enable-background="new    " d="M34.739,75.84l-8.482-8.384c-0.675-0.656-1.079-1.602-1.077-2.66
							l8.473,8.389C33.65,74.244,34.068,75.162,34.739,75.84z"/>
					</defs>
					<clipPath id="SVGID_6_">
						<use xlink:href="#SVGID_5_"  overflow="visible"/>
					</clipPath>
					<g clip-path="url(#SVGID_6_)" enable-background="new    ">
						<path fill="#82211A" d="M34.739,75.84l-8.482-8.384c-0.604-0.589-0.986-1.413-1.059-2.347l8.469,8.387
							C33.74,74.424,34.13,75.242,34.739,75.84"/>
						<path fill="#87241B" d="M33.667,73.496l-8.469-8.387c-0.012-0.091-0.015-0.198-0.018-0.313l8.473,8.389
							C33.651,73.296,33.657,73.392,33.667,73.496"/>
					</g>
				</g>
				<g>
					<path fill="#D73D27" d="M95.127,53.998l-0.029,13.8c-0.006,2.227-1.823,4.208-4.087,4.411L37.71,76.885
						c-2.235,0.192-4.068-1.477-4.057-3.7l0.029-13.804l12.814-1.126v2.957c0,1.173,0.94,2.041,2.115,1.929l31.569-2.765
						c1.171-0.101,2.119-1.126,2.128-2.304l0.006-2.95L95.127,53.998z"/>
				</g>
				<g>
					<g>
						<polygon fill="#8A241C" points="33.682,59.381 25.209,51.006 38.024,49.872 46.496,58.254 						"/>
					</g>
					<g>
						<polygon fill="#8A241C" points="33.682,59.381 25.209,51.006 38.024,49.872 46.496,58.254 						"/>
					</g>
				</g>
				<g>
					<polygon fill="#8A241C" points="33.653,73.185 25.18,64.796 25.209,51.006 33.682,59.381 					"/>
				</g>
			</g>
			<g enable-background="new    ">
				<g>
					<g>
						<polygon fill="#E5574F" points="95.065,30.711 95.136,51.016 82.321,52.141 82.251,31.835 						"/>
					</g>
					<g>
						<polygon fill="#E1493B" points="95.065,30.711 95.136,51.016 82.321,52.141 82.251,31.835 						"/>
					</g>
				</g>
				<g>
					<polygon fill="#8A241C" points="82.321,52.141 73.857,43.759 73.781,23.452 82.251,31.835 					"/>
				</g>
				<g>
					<g>
						<polygon fill="#8A241C" points="82.251,31.835 73.781,23.452 86.578,22.344 95.065,30.711 						"/>
					</g>
					<g>
						<polygon fill="#8A241C" points="82.251,31.835 73.781,23.452 86.578,22.344 95.065,30.711 						"/>
					</g>
				</g>
			</g>
			<g enable-background="new    ">
				<g>
					<g>
						<polygon fill="#E5574F" points="46.431,34.969 46.497,55.281 33.693,56.405 33.606,36.096 						"/>
					</g>
					<g>
						<polygon fill="#E1493B" points="46.431,34.969 46.497,55.281 33.693,56.405 33.606,36.096 						"/>
					</g>
				</g>
				<g>
					<polygon fill="#8A241C" points="33.693,56.405 25.209,48.02 25.141,27.719 33.606,36.096 					"/>
				</g>
				<g>
					<polygon fill="#8A241C" points="33.606,36.096 25.141,27.719 37.945,26.591 46.431,34.969 					"/>
				</g>
			</g>
		</g>
		<g>
			<g enable-background="new    ">
				<g>
					<polygon fill="#8A241C" points="82.302,28.804 73.833,20.437 73.839,17.881 82.308,26.266 					"/>
				</g>
				<g enable-background="new    ">
					<defs>
						<path id="SVGID_7_" enable-background="new    " d="M73.287,16.491c2.823,2.784,5.644,5.582,8.468,8.375
							c0.345,0.35,0.553,0.838,0.553,1.399l-8.469-8.385C73.839,17.322,73.631,16.836,73.287,16.491z"/>
					</defs>
					<clipPath id="SVGID_8_">
						<use xlink:href="#SVGID_7_"  overflow="visible"/>
					</clipPath>
					<g clip-path="url(#SVGID_8_)" enable-background="new    ">
						<path fill="#87241B" d="M82.308,26.266l-8.469-8.385c0-0.052-0.006-0.102-0.013-0.16l8.473,8.376
							C82.302,26.152,82.308,26.213,82.308,26.266"/>
						<path fill="#82211A" d="M82.299,26.097l-8.473-8.376c-0.042-0.492-0.237-0.917-0.539-1.229l8.468,8.375
							C82.056,25.175,82.272,25.604,82.299,26.097"/>
					</g>
				</g>
				<g enable-background="new    ">
					<defs>
						<path id="SVGID_9_" enable-background="new    " d="M85.594,3.267c0.582,0.555,1.136,1.112,1.717,1.666
							c2.242,2.233,4.512,4.468,6.775,6.706c-0.738-0.738-1.814-1.137-2.978-1.046l-8.47-8.367
							C83.802,2.114,84.855,2.527,85.594,3.267z"/>
					</defs>
					<clipPath id="SVGID_10_">
						<use xlink:href="#SVGID_9_"  overflow="visible"/>
					</clipPath>
					<g clip-path="url(#SVGID_10_)" enable-background="new    ">
						<path fill="#BB3727" d="M91.108,10.593l-8.47-8.367c0.045-0.006,0.117-0.011,0.157-0.011l8.469,8.378
							C91.22,10.592,91.146,10.593,91.108,10.593"/>
						<path fill="#B63527" d="M91.265,10.592l-8.469-8.378c0.108-0.013,0.215-0.013,0.337,0l8.476,8.376
							C91.5,10.586,91.379,10.586,91.265,10.592"/>
						<path fill="#B43327" d="M91.608,10.591l-8.476-8.376c0.105,0,0.194,0.011,0.287,0.012l8.47,8.379
							C91.796,10.593,91.704,10.592,91.608,10.591"/>
						<path fill="#B13126" d="M91.89,10.605l-8.47-8.379c0.083,0.008,0.202,0.028,0.282,0.046l8.464,8.382
							C92.089,10.634,91.992,10.618,91.89,10.605"/>
						<path fill="#AE3125" d="M92.166,10.654l-8.464-8.382c0.079,0.015,0.169,0.031,0.262,0.057l8.469,8.378
							C92.357,10.682,92.245,10.657,92.166,10.654"/>
						<path fill="#AA3025" d="M92.433,10.708L83.964,2.33c0.075,0.019,0.153,0.048,0.248,0.081l8.47,8.367
							C92.607,10.748,92.505,10.724,92.433,10.708"/>
						<path fill="#A72D24" d="M92.682,10.777l-8.47-8.367c0.073,0.014,0.151,0.056,0.247,0.079l8.463,8.379
							C92.854,10.839,92.751,10.806,92.682,10.777"/>
						<path fill="#A22C23" d="M92.922,10.868l-8.463-8.379c0.066,0.038,0.15,0.075,0.236,0.106l8.467,8.387
							C93.095,10.942,92.999,10.9,92.922,10.868"/>
						<path fill="#9D2C22" d="M93.162,10.982l-8.467-8.387c0.074,0.057,0.16,0.097,0.24,0.135l8.466,8.385
							C93.335,11.072,93.235,11.023,93.162,10.982"/>
						<path fill="#9A2C21" d="M93.401,11.115L84.936,2.73c0.077,0.055,0.166,0.111,0.251,0.172l8.466,8.37
							C93.585,11.217,93.479,11.163,93.401,11.115"/>
						<path fill="#972920" d="M93.652,11.272l-8.466-8.37c0.083,0.062,0.161,0.124,0.262,0.202l8.471,8.375
							C93.84,11.41,93.736,11.34,93.652,11.272"/>
						<path fill="#942820" d="M93.919,11.479l-8.471-8.375c0.042,0.045,0.108,0.104,0.146,0.163l8.492,8.372
							C94.024,11.58,93.961,11.533,93.919,11.479"/>
					</g>
				</g>
				<g>
					<polygon fill="#8A241C" points="33.673,33.042 25.203,24.662 25.238,11.27 33.705,19.639 					"/>
				</g>
				<g>
					<polygon fill="#C33A28" points="37.787,15.236 29.32,6.851 82.639,2.226 91.108,10.593 					"/>
				</g>
				<g>
					<g>
						<path fill="#E5574F" d="M37.787,15.236l53.321-4.643c2.239-0.185,4.063,1.474,4.06,3.712L95.11,27.696l-12.809,1.107
							l0.006-2.538c0-1.172-0.935-2.04-2.123-1.943l-31.555,2.752c-1.171,0.1-2.133,1.13-2.133,2.298v2.549l-12.823,1.12
							l0.031-13.403C33.711,17.409,35.545,15.438,37.787,15.236z"/>
					</g>
					<g>
						<path fill="#E5574F" d="M37.787,15.236l53.321-4.643c2.239-0.185,4.063,1.474,4.06,3.712L95.11,27.696l-12.809,1.107
							l0.006-2.538c0-1.172-0.935-2.04-2.123-1.943l-31.555,2.752c-1.171,0.1-2.133,1.13-2.133,2.298v2.549l-12.823,1.12
							l0.031-13.403C33.711,17.409,35.545,15.438,37.787,15.236z"/>
					</g>
				</g>
				<g enable-background="new    ">
					<defs>
						<path id="SVGID_11_" enable-background="new    " d="M33.705,19.639l-8.466-8.369c0.004-2.24,1.825-4.223,4.082-4.418
							l8.467,8.385C35.545,15.438,33.711,17.409,33.705,19.639z"/>
					</defs>
					<clipPath id="SVGID_12_">
						<use xlink:href="#SVGID_11_"  overflow="visible"/>
					</clipPath>
					<g clip-path="url(#SVGID_12_)" enable-background="new    ">
						<path fill="#87241B" d="M33.705,19.639l-8.466-8.369c0-0.031,0-0.062,0-0.094l8.47,8.386
							C33.705,19.587,33.708,19.621,33.705,19.639"/>
						<path fill="#8A241C" d="M33.708,19.562l-8.47-8.386c0.004-0.1,0.011-0.214,0.029-0.333l8.468,8.388
							C33.717,19.33,33.711,19.452,33.708,19.562"/>
						<path fill="#8D241D" d="M33.735,19.23l-8.468-8.388c0.004-0.084,0.013-0.188,0.034-0.278l8.463,8.378
							C33.761,19.033,33.746,19.134,33.735,19.23"/>
						<path fill="#90261E" d="M33.764,18.942l-8.463-8.378c0.018-0.094,0.031-0.172,0.051-0.258l8.47,8.383
							C33.805,18.772,33.788,18.855,33.764,18.942"/>
						<path fill="#942820" d="M33.822,18.688l-8.47-8.383c0.021-0.082,0.042-0.152,0.062-0.234l8.47,8.377
							C33.868,18.529,33.844,18.601,33.822,18.688"/>
						<path fill="#972920" d="M33.884,18.449l-8.47-8.377c0.027-0.082,0.042-0.155,0.08-0.228l8.466,8.378
							C33.938,18.293,33.907,18.375,33.884,18.449"/>
						<path fill="#9A2C21" d="M33.96,18.222l-8.466-8.378c0.022-0.07,0.049-0.144,0.083-0.219l8.472,8.391
							C34.014,18.08,33.989,18.16,33.96,18.222"/>
						<path fill="#9D2C22" d="M34.05,18.016l-8.472-8.391c0.025-0.076,0.062-0.14,0.093-0.201l8.463,8.371
							C34.11,17.86,34.068,17.932,34.05,18.016"/>
						<path fill="#A22C23" d="M34.134,17.795l-8.463-8.371c0.03-0.071,0.065-0.14,0.102-0.208l8.48,8.383
							C34.209,17.665,34.182,17.729,34.134,17.795"/>
						<path fill="#A72D24" d="M34.253,17.599l-8.48-8.383c0.043-0.073,0.077-0.139,0.114-0.207l8.485,8.38
							C34.318,17.461,34.288,17.526,34.253,17.599"/>
						<path fill="#AA3025" d="M34.373,17.39l-8.485-8.38c0.053-0.077,0.092-0.136,0.132-0.201l8.48,8.376
							C34.448,17.25,34.408,17.317,34.373,17.39"/>
						<path fill="#AE3125" d="M34.5,17.186l-8.48-8.376c0.051-0.062,0.103-0.131,0.154-0.2l8.471,8.382
							C34.596,17.053,34.549,17.12,34.5,17.186"/>
						<path fill="#B13126" d="M34.645,16.991l-8.471-8.382c0.051-0.079,0.11-0.142,0.17-0.211l8.464,8.386
							C34.75,16.851,34.698,16.915,34.645,16.991"/>
						<path fill="#B43327" d="M34.808,16.783l-8.464-8.386c0.064-0.079,0.131-0.143,0.197-0.207l8.472,8.37
							C34.943,16.628,34.872,16.697,34.808,16.783"/>
						<path fill="#B63527" d="M35.013,16.561l-8.472-8.37c0.083-0.081,0.155-0.161,0.243-0.239l8.464,8.381
							C35.176,16.409,35.092,16.491,35.013,16.561"/>
						<path fill="#BB3727" d="M35.249,16.333l-8.464-8.381c0.091-0.076,0.209-0.168,0.311-0.25l8.467,8.383
							C35.455,16.167,35.361,16.252,35.249,16.333"/>
						<path fill="#BD3827" d="M35.562,16.085l-8.467-8.383c0.164-0.124,0.342-0.236,0.524-0.327l8.48,8.378
							C35.914,15.851,35.73,15.96,35.562,16.085"/>
						<path fill="#C23A28" d="M36.099,15.753l-8.48-8.378c0.287-0.161,0.577-0.28,0.88-0.363l8.468,8.38
							C36.662,15.475,36.372,15.598,36.099,15.753"/>
						<path fill="#BD3827" d="M36.967,15.392l-8.468-8.38c0.201-0.053,0.402-0.108,0.607-0.13l8.47,8.386
							C37.375,15.285,37.167,15.33,36.967,15.392"/>
						<path fill="#BB3727" d="M37.576,15.268l-8.47-8.386c0.071-0.011,0.141-0.026,0.215-0.031l8.467,8.385
							C37.713,15.246,37.64,15.255,37.576,15.268"/>
					</g>
				</g>
			</g>
		</g>
	</g>
</g>
<g>
	<path fill="#6E6D6E" d="M16.242,103.811c0,7.37-3.393,9.861-6.351,9.861c-3.426,0-6.184-3.126-6.184-9.841
		c0-6.921,3.109-9.844,6.384-9.844C13.52,93.987,16.242,97.187,16.242,103.811z M6.748,103.811c0,3.142,0.552,7.438,3.31,7.438
		c2.601,0,3.155-4.463,3.155-7.438c0-2.933-0.554-7.421-3.238-7.421C7.25,96.39,6.748,100.878,6.748,103.811z"/>
	<path fill="#6E6D6E" d="M19.597,100.219c0-2.908-0.117-4.629-0.167-5.966h2.69l0.15,2.441h0.083
		c1.069-1.992,2.557-2.707,4.061-2.707c3.346,0,5.515,3.507,5.515,9.773c0,7.087-2.908,9.911-5.916,9.911
		c-1.806,0-2.835-1.153-3.343-2.212h-0.083v9.465h-2.991V100.219z M22.588,106.367c0,0.541,0.037,1.104,0.16,1.572
		c0.593,2.723,1.969,3.191,2.798,3.191c2.523,0,3.354-3.477,3.354-7.3c0-3.938-0.947-7.256-3.387-7.256
		c-1.387,0-2.642,1.72-2.808,3.442c-0.081,0.435-0.117,0.952-0.117,1.471V106.367z"/>
	<path fill="#6E6D6E" d="M37.491,104.077c0,5.885,2.323,7.104,4.496,7.104c1.337,0,2.407-0.333,3.156-0.705l0.504,2.21
		c-1.058,0.535-2.674,0.886-4.211,0.886c-4.579,0-6.937-3.729-6.937-9.577c0-6.148,2.641-10.007,6.459-10.007
		c3.869,0,5.44,4.092,5.44,8.367c0,0.738-0.034,1.24-0.083,1.723H37.491z M43.482,101.839c0.043-3.79-1.377-5.496-2.832-5.496
		c-2.022,0-3.008,2.891-3.126,5.496H43.482z"/>
	<path fill="#6E6D6E" d="M49.672,99.182c0-2.241-0.117-3.376-0.161-4.929h2.645l0.157,2.322h0.083
		c0.819-1.521,2.357-2.588,4.375-2.588c2.644,0,4.614,1.935,4.614,6.532v12.818h-3.039v-12.251c0-2.3-0.436-4.529-2.641-4.529
		c-1.27,0-2.49,1.053-2.841,3.075c-0.117,0.468-0.154,1.054-0.154,1.737v11.968h-3.039V99.182z"/>
	<path fill="#CE3428" d="M65.126,110.195c0.669,0.418,1.856,0.985,3.076,0.985c1.688,0,2.791-1.073,2.791-2.773
		c0-1.455-0.518-2.439-2.44-3.727c-2.49-1.588-3.828-3.243-3.828-5.401c0-3.122,2.29-5.292,5.243-5.292
		c1.493,0,2.596,0.5,3.398,0.984l-0.803,2.287c-0.749-0.517-1.521-0.869-2.558-0.869c-1.619,0-2.439,1.171-2.439,2.443
		c0,1.268,0.47,1.971,2.373,3.275c2.208,1.418,3.944,3.156,3.944,5.784c0,3.825-2.606,5.679-5.763,5.679
		c-1.383,0-2.922-0.418-3.746-1.104L65.126,110.195z"/>
	<path fill="#CE3428" d="M80.734,89.805v4.448h3.66v2.305h-3.66v11.335c0,2.487,0.868,3.171,1.972,3.171
		c0.517,0,0.918-0.05,1.219-0.117l0.167,2.324c-0.566,0.183-1.271,0.301-2.255,0.301c-1.22,0-2.274-0.301-3.008-1.127
		c-0.77-0.86-1.123-2.181-1.123-4.807v-11.08h-2.324v-2.305h2.324v-3.218L80.734,89.805z"/>
	<path fill="#CE3428" d="M97.142,108.999c0,1.477,0.019,3.119,0.185,4.339h-2.725l-0.184-2h-0.119
		c-0.83,1.465-2.182,2.334-3.825,2.334c-2.54,0-4.51-2.141-4.51-5.449c0-4.813,3.825-6.902,8.122-6.951v-0.585
		c0-2.558-0.654-4.297-3.026-4.297c-1.172,0-2.256,0.353-3.144,0.988l-0.684-2.141c0.822-0.584,2.557-1.25,4.462-1.25
		c3.825,0,5.447,2.472,5.447,6.749V108.999z M94.185,103.46c-1.575,0-5.266,0.301-5.266,4.433c0,2.537,1.271,3.406,2.335,3.406
		c1.355,0,2.461-0.986,2.812-2.892c0.066-0.351,0.118-0.753,0.118-1.102V103.46z"/>
	<path fill="#CE3428" d="M110.726,112.869c-0.65,0.401-1.804,0.702-3.141,0.702c-4.178,0-6.979-3.342-6.979-9.644
		c0-5.497,2.75-9.94,7.515-9.94c1.035,0,2.138,0.266,2.7,0.6l-0.61,2.478c-0.374-0.207-1.171-0.507-2.157-0.507
		c-3.076,0-4.412,3.611-4.412,7.37c0,4.457,1.688,7.136,4.479,7.136c0.802,0,1.503-0.166,2.189-0.518L110.726,112.869z"/>
	<path fill="#CE3428" d="M116.29,103.127h0.067c0.369-0.753,0.683-1.504,1.034-2.125l3.778-6.749h3.291l-5.048,8.054l5.516,11.031
		h-3.405l-4.132-8.991l-1.102,1.787v7.204h-3.009V86.062h3.009V103.127z"/>
</g>
<g>
	<g>
		<path fill="#CECCCB" d="M129.707,111.969c0,0.884-0.697,1.584-1.606,1.584c-0.907,0-1.617-0.7-1.617-1.584
			c0-0.877,0.71-1.558,1.629-1.558C129.01,110.411,129.707,111.092,129.707,111.969z M126.892,111.969
			c0,0.719,0.535,1.258,1.221,1.258c0.673,0.012,1.186-0.539,1.186-1.246c0-0.686-0.513-1.259-1.209-1.259
			C127.427,110.722,126.892,111.295,126.892,111.969z M127.853,112.801h-0.362v-1.587c0.148,0,0.338-0.032,0.599-0.032
			c0.31,0,0.445,0.032,0.547,0.125c0.088,0.052,0.149,0.165,0.149,0.325c0,0.198-0.126,0.32-0.322,0.374v0.024
			c0.16,0.046,0.224,0.168,0.285,0.384c0.037,0.238,0.075,0.313,0.112,0.387h-0.386c-0.059-0.073-0.064-0.209-0.125-0.387
			c-0.035-0.172-0.124-0.235-0.312-0.235h-0.185V112.801z M127.864,111.917h0.183c0.19,0,0.363-0.085,0.363-0.225
			c0-0.149-0.117-0.237-0.357-0.237c-0.088,0-0.141,0.005-0.188,0.005V111.917z"/>
	</g>
</g>
</svg>
