<?xml version="1.0" encoding="utf-8"?>
<!DOCTYPE svg PUBLIC "-//W3C//DTD SVG 1.1//EN" "http://www.w3.org/Graphics/SVG/1.1/DTD/svg11.dtd">
<svg xmlns="http://www.w3.org/2000/svg" xmlns:xlink="http://www.w3.org/1999/xlink" version="1.1" id="Layer_1" x="0" y="0" width="132" height="126" viewBox="0 0 132 126" enable-background="new 0 0 132 126" xml:space="preserve">
  <g enable-background="new">
    <g enable-background="new">
      <defs>
        <path id="SVGID_1_" enable-background="new" d="M80.18 60.38l-8.48-8.38c1.19-0.1 2.14-1.13 2.15-2.31l8.47 8.39C82.3 59.25 81.35 60.27 80.18 60.38z"/>
      </defs>
      <clipPath id="SVGID_2_">
        <use xlink:href="#SVGID_1_" overflow="visible"/>
      </clipPath>
      <g clip-path="url(#SVGID_2_)" enable-background="new">
        <path fill="#BB3727" d="M80.18 60.38l-8.48-8.38c0.05 0 0.09-0.01 0.12-0.01l8.49 8.37C80.25 60.37 80.21 60.37 80.18 60.38"/>
        <path fill="#BD3827" d="M80.3 60.37l-8.49-8.37c0.12-0.02 0.23-0.05 0.32-0.07l8.47 8.38C80.51 60.33 80.4 60.35 80.3 60.37"/>
        <path fill="#C23A28" d="M80.61 60.3l-8.47-8.37c0.17-0.05 0.3-0.11 0.45-0.19l8.47 8.37C80.92 60.18 80.77 60.25 80.61 60.3"/>
        <path fill="#BD3827" d="M81.05 60.11l-8.47-8.37c0.09-0.06 0.21-0.11 0.29-0.18l8.47 8.37C81.26 60 81.16 60.06 81.05 60.11"/>
        <path fill="#BB3727" d="M81.34 59.93l-8.47-8.37c0.05-0.05 0.11-0.09 0.17-0.14l8.47 8.39C81.45 59.85 81.41 59.89 81.34 59.93"/>
        <path fill="#B63527" d="M81.51 59.81l-8.47-8.39c0.03-0.04 0.08-0.08 0.12-0.11l8.47 8.38C81.59 59.72 81.54 59.76 81.51 59.81"/>
        <path fill="#B43327" d="M81.64 59.69l-8.47-8.38c0.02-0.04 0.06-0.08 0.1-0.11l8.47 8.37C81.69 59.61 81.66 59.64 81.64 59.69"/>
        <path fill="#B13126" d="M81.74 59.57l-8.47-8.37c0.02-0.05 0.05-0.07 0.08-0.12l8.47 8.38C81.78 59.5 81.78 59.53 81.74 59.57"/>
        <path fill="#AE3125" d="M81.82 59.46l-8.47-8.38c0.04-0.03 0.06-0.06 0.07-0.1l8.49 8.38C81.89 59.39 81.85 59.43 81.82 59.46"/>
        <path fill="#AA3025" d="M81.9 59.36l-8.49-8.38c0.03-0.03 0.06-0.07 0.09-0.1l8.47 8.38C81.94 59.29 81.92 59.32 81.9 59.36"/>
        <path fill="#A72D24" d="M81.97 59.25l-8.47-8.38c0.03-0.04 0.03-0.07 0.04-0.1l8.48 8.37C82.02 59.18 82 59.22 81.97 59.25"/>
        <path fill="#A22C23" d="M82.03 59.14l-8.48-8.37c0.03-0.04 0.05-0.07 0.07-0.12l8.47 8.38C82.06 59.07 82.04 59.11 82.03 59.14"/>
        <path fill="#9D2C22" d="M82.09 59.03l-8.47-8.38c0.02-0.03 0.04-0.07 0.04-0.11l8.49 8.39C82.13 58.96 82.11 59.01 82.09 59.03"/>
        <path fill="#9A2C21" d="M82.15 58.93l-8.48-8.38c0.01-0.02 0.03-0.08 0.05-0.11l8.47 8.38C82.16 58.85 82.15 58.89 82.15 58.93"/>
        <path fill="#972920" d="M82.17 58.82l-8.47-8.38c0.02-0.04 0.04-0.08 0.06-0.12l8.46 8.38C82.2 58.74 82.19 58.77 82.17 58.82"/>
        <path fill="#942820" d="M82.22 58.7l-8.46-8.38c0.01-0.04 0.02-0.08 0.02-0.12l8.48 8.38C82.25 58.61 82.23 58.65 82.22 58.7"/>
        <path fill="#90261E" d="M82.26 58.57l-8.48-8.37c0-0.04 0.01-0.09 0.02-0.14l8.48 8.38C82.27 58.48 82.27 58.52 82.26 58.57"/>
        <path fill="#8D241D" d="M82.27 58.44l-8.47-8.38c0.01-0.04 0.02-0.09 0.03-0.15l8.47 8.37C82.29 58.34 82.28 58.4 82.27 58.44"/>
        <path fill="#8A241C" d="M82.3 58.28l-8.47-8.37c0.01-0.06 0.01-0.12 0.01-0.17l8.47 8.38C82.3 58.17 82.3 58.23 82.3 58.28"/>
        <path fill="#87241B" d="M82.31 58.11l-8.47-8.38c0-0.01 0-0.02 0-0.05l8.47 8.39C82.3 58.09 82.31 58.09 82.31 58.11"/>
      </g>
    </g>
    <polygon fill="#8A241C" points="82.31 55.12 73.84 46.74 86.66 45.61 95.13 54 "/>
    <polygon fill="#8A241C" points="82.31 55.12 73.84 46.74 86.66 45.61 95.13 54 "/>
    <polygon fill="#8A241C" points="82.31 58.07 73.84 49.69 73.84 46.74 82.31 55.12 "/>
    <polygon fill="#C33A28" points="48.61 63.14 40.15 54.77 71.69 52 80.18 60.38 "/>
    <g enable-background="new">
      <defs>
        <path id="SVGID_3_" enable-background="new" d="M47.05 62.6c-0.13-0.13-0.29-0.29-0.43-0.42 -2.67-2.66-5.36-5.31-8.04-7.97 0.39 0.39 0.94 0.61 1.56 0.55l8.47 8.37C47.99 63.2 47.45 62.98 47.05 62.6z"/>
      </defs>
      <clipPath id="SVGID_4_">
        <use xlink:href="#SVGID_3_" overflow="visible"/>
      </clipPath>
      <g clip-path="url(#SVGID_4_)" enable-background="new">
        <path fill="#942820" d="M47.05 62.6l-8.47-8.39c0.03 0.04 0.05 0.06 0.1 0.08l8.47 8.4C47.11 62.65 47.09 62.63 47.05 62.6"/>
        <path fill="#972920" d="M47.15 62.69l-8.47-8.4c0.04 0.04 0.08 0.08 0.13 0.11l8.48 8.38C47.23 62.76 47.19 62.72 47.15 62.69"/>
        <path fill="#9A2C21" d="M47.29 62.79l-8.48-8.38c0.04 0.03 0.08 0.05 0.12 0.08l8.48 8.38C47.36 62.85 47.32 62.82 47.29 62.79"/>
        <path fill="#9D2C22" d="M47.41 62.88l-8.48-8.38c0.05 0.03 0.09 0.05 0.13 0.07l8.48 8.38C47.49 62.93 47.45 62.9 47.41 62.88"/>
        <path fill="#A22C23" d="M47.54 62.95l-8.48-8.38c0.05 0.02 0.09 0.04 0.13 0.06l8.48 8.38C47.61 62.98 47.58 62.96 47.54 62.95"/>
        <path fill="#A72D24" d="M47.66 63l-8.48-8.38c0.05 0.01 0.09 0.02 0.13 0.04l8.48 8.38C47.74 63.03 47.71 63.02 47.66 63"/>
        <path fill="#AA3025" d="M47.79 63.05l-8.47-8.38c0.05 0.02 0.09 0.03 0.13 0.04l8.47 8.38C47.87 63.07 47.83 63.07 47.79 63.05"/>
        <path fill="#AE3125" d="M47.91 63.08l-8.47-8.38c0.04 0.01 0.09 0.02 0.14 0.03l8.47 8.38C48 63.11 47.96 63.1 47.91 63.08"/>
        <path fill="#B13126" d="M48.05 63.12l-8.47-8.38c0.04 0.01 0.09 0.02 0.14 0.03l8.47 8.37C48.15 63.13 48.1 63.13 48.05 63.12"/>
        <path fill="#B43327" d="M48.19 63.13l-8.47-8.37c0.05 0 0.1 0 0.15 0l8.47 8.38C48.29 63.15 48.25 63.14 48.19 63.13"/>
        <path fill="#B63527" d="M48.34 63.15l-8.47-8.38c0.05 0 0.11 0 0.17 0l8.49 8.38C48.46 63.15 48.4 63.15 48.34 63.15"/>
        <path fill="#BB3727" d="M48.52 63.15l-8.48-8.38c0.04 0 0.07 0 0.11 0l8.47 8.37C48.58 63.15 48.54 63.15 48.52 63.15"/>
      </g>
    </g>
    <g enable-background="new">
      <defs>
        <path id="SVGID_5_" enable-background="new" d="M34.74 75.84l-8.48-8.38c-0.67-0.66-1.08-1.6-1.08-2.66l8.47 8.39C33.65 74.24 34.07 75.16 34.74 75.84z"/>
      </defs>
      <clipPath id="SVGID_6_">
        <use xlink:href="#SVGID_5_" overflow="visible"/>
      </clipPath>
      <g clip-path="url(#SVGID_6_)" enable-background="new">
        <path fill="#82211A" d="M34.74 75.84l-8.48-8.38c-0.6-0.59-0.99-1.41-1.06-2.35l8.47 8.39C33.74 74.42 34.13 75.24 34.74 75.84"/>
        <path fill="#87241B" d="M33.67 73.5l-8.47-8.39c-0.01-0.09-0.01-0.2-0.02-0.31l8.47 8.39C33.65 73.3 33.66 73.39 33.67 73.5"/>
      </g>
    </g>
    <path fill="#D73D27" d="M95.13 54l-0.03 13.8c-0.01 2.23-1.82 4.21-4.09 4.41L37.71 76.89c-2.23 0.19-4.07-1.48-4.06-3.7l0.03-13.8 12.81-1.13v2.96c0 1.17 0.94 2.04 2.12 1.93l31.57-2.76c1.17-0.1 2.12-1.13 2.13-2.3l0.01-2.95L95.13 54z"/>
    <polygon fill="#8A241C" points="33.68 59.38 25.21 51.01 38.02 49.87 46.5 58.25 "/>
    <polygon fill="#8A241C" points="33.68 59.38 25.21 51.01 38.02 49.87 46.5 58.25 "/>
    <polygon fill="#8A241C" points="33.65 73.19 25.18 64.8 25.21 51.01 33.68 59.38 "/>
  </g>
  <g enable-background="new">
    <polygon fill="#E5574F" points="95.07 30.71 95.14 51.02 82.32 52.14 82.25 31.84 "/>
    <polygon fill="#E1493B" points="95.07 30.71 95.14 51.02 82.32 52.14 82.25 31.84 "/>
    <polygon fill="#8A241C" points="82.32 52.14 73.86 43.76 73.78 23.45 82.25 31.84 "/>
    <polygon fill="#8A241C" points="82.25 31.84 73.78 23.45 86.58 22.34 95.07 30.71 "/>
    <polygon fill="#8A241C" points="82.25 31.84 73.78 23.45 86.58 22.34 95.07 30.71 "/>
  </g>
  <g enable-background="new">
    <polygon fill="#E5574F" points="46.43 34.97 46.5 55.28 33.69 56.41 33.61 36.1 "/>
    <polygon fill="#E1493B" points="46.43 34.97 46.5 55.28 33.69 56.41 33.61 36.1 "/>
    <polygon fill="#8A241C" points="33.69 56.41 25.21 48.02 25.14 27.72 33.61 36.1 "/>
    <polygon fill="#8A241C" points="33.61 36.1 25.14 27.72 37.95 26.59 46.43 34.97 "/>
  </g>
  <g enable-background="new">
    <polygon fill="#8A241C" points="82.3 28.8 73.83 20.44 73.84 17.88 82.31 26.27 "/>
    <g enable-background="new">
      <defs>
        <path id="SVGID_7_" enable-background="new" d="M73.29 16.49c2.82 2.78 5.64 5.58 8.47 8.38 0.35 0.35 0.55 0.84 0.55 1.4l-8.47-8.38C73.84 17.32 73.63 16.84 73.29 16.49z"/>
      </defs>
      <clipPath id="SVGID_8_">
        <use xlink:href="#SVGID_7_" overflow="visible"/>
      </clipPath>
      <g clip-path="url(#SVGID_8_)" enable-background="new">
        <path fill="#87241B" d="M82.31 26.27l-8.47-8.38c0-0.05-0.01-0.1-0.01-0.16l8.47 8.38C82.3 26.15 82.31 26.21 82.31 26.27"/>
        <path fill="#82211A" d="M82.3 26.1l-8.47-8.38c-0.04-0.49-0.24-0.92-0.54-1.23l8.47 8.38C82.06 25.18 82.27 25.6 82.3 26.1"/>
      </g>
    </g>
    <g enable-background="new">
      <defs>
        <path id="SVGID_9_" enable-background="new" d="M85.59 3.27c0.58 0.56 1.14 1.11 1.72 1.67 2.24 2.23 4.51 4.47 6.78 6.71 -0.74-0.74-1.81-1.14-2.98-1.05l-8.47-8.37C83.8 2.11 84.86 2.53 85.59 3.27z"/>
      </defs>
      <clipPath id="SVGID_10_">
        <use xlink:href="#SVGID_9_" overflow="visible"/>
      </clipPath>
      <g clip-path="url(#SVGID_10_)" enable-background="new">
        <path fill="#BB3727" d="M91.11 10.59l-8.47-8.37c0.05-0.01 0.12-0.01 0.16-0.01l8.47 8.38C91.22 10.59 91.15 10.59 91.11 10.59"/>
        <path fill="#B63527" d="M91.27 10.59l-8.47-8.38c0.11-0.01 0.22-0.01 0.34 0l8.48 8.38C91.5 10.59 91.38 10.59 91.27 10.59"/>
        <path fill="#B43327" d="M91.61 10.59l-8.48-8.38c0.11 0 0.19 0.01 0.29 0.01l8.47 8.38C91.8 10.59 91.7 10.59 91.61 10.59"/>
        <path fill="#B13126" d="M91.89 10.61l-8.47-8.38c0.08 0.01 0.2 0.03 0.28 0.05l8.46 8.38C92.09 10.63 91.99 10.62 91.89 10.61"/>
        <path fill="#AE3125" d="M92.17 10.65l-8.46-8.38c0.08 0.02 0.17 0.03 0.26 0.06l8.47 8.38C92.36 10.68 92.25 10.66 92.17 10.65"/>
        <path fill="#AA3025" d="M92.43 10.71L83.96 2.33c0.08 0.02 0.15 0.05 0.25 0.08l8.47 8.37C92.61 10.75 92.51 10.72 92.43 10.71"/>
        <path fill="#A72D24" d="M92.68 10.78l-8.47-8.37c0.07 0.01 0.15 0.06 0.25 0.08l8.46 8.38C92.85 10.84 92.75 10.81 92.68 10.78"/>
        <path fill="#A22C23" d="M92.92 10.87l-8.46-8.38c0.07 0.04 0.15 0.08 0.24 0.11l8.47 8.39C93.1 10.94 93 10.9 92.92 10.87"/>
        <path fill="#9D2C22" d="M93.16 10.98l-8.47-8.39c0.07 0.06 0.16 0.1 0.24 0.14l8.47 8.39C93.34 11.07 93.24 11.02 93.16 10.98"/>
        <path fill="#9A2C21" d="M93.4 11.12L84.94 2.73c0.08 0.06 0.17 0.11 0.25 0.17l8.47 8.37C93.59 11.22 93.48 11.16 93.4 11.12"/>
        <path fill="#972920" d="M93.65 11.27l-8.47-8.37c0.08 0.06 0.16 0.12 0.26 0.2l8.47 8.38C93.84 11.41 93.74 11.34 93.65 11.27"/>
        <path fill="#942820" d="M93.92 11.48l-8.47-8.37c0.04 0.05 0.11 0.1 0.15 0.16l8.49 8.37C94.02 11.58 93.96 11.53 93.92 11.48"/>
      </g>
    </g>
    <polygon fill="#8A241C" points="33.67 33.04 25.2 24.66 25.24 11.27 33.71 19.64 "/>
    <polygon fill="#C33A28" points="37.79 15.24 29.32 6.85 82.64 2.23 91.11 10.59 "/>
    <path fill="#E5574F" d="M37.79 15.24l53.32-4.64c2.24-0.18 4.06 1.47 4.06 3.71L95.11 27.7l-12.81 1.11 0.01-2.54c0-1.17-0.93-2.04-2.12-1.94l-31.55 2.75c-1.17 0.1-2.13 1.13-2.13 2.3v2.55l-12.82 1.12 0.03-13.4C33.71 17.41 35.55 15.44 37.79 15.24z"/>
    <path fill="#E5574F" d="M37.79 15.24l53.32-4.64c2.24-0.18 4.06 1.47 4.06 3.71L95.11 27.7l-12.81 1.11 0.01-2.54c0-1.17-0.93-2.04-2.12-1.94l-31.55 2.75c-1.17 0.1-2.13 1.13-2.13 2.3v2.55l-12.82 1.12 0.03-13.4C33.71 17.41 35.55 15.44 37.79 15.24z"/>
    <g enable-background="new">
      <defs>
        <path id="SVGID_11_" enable-background="new" d="M33.71 19.64l-8.47-8.37c0-2.24 1.83-4.22 4.08-4.42l8.47 8.39C35.55 15.44 33.71 17.41 33.71 19.64z"/>
      </defs>
      <clipPath id="SVGID_12_">
        <use xlink:href="#SVGID_11_" overflow="visible"/>
      </clipPath>
      <g clip-path="url(#SVGID_12_)" enable-background="new">
        <path fill="#87241B" d="M33.71 19.64l-8.47-8.37c0-0.03 0-0.06 0-0.09l8.47 8.39C33.71 19.59 33.71 19.62 33.71 19.64"/>
        <path fill="#8A241C" d="M33.71 19.56l-8.47-8.39c0-0.1 0.01-0.21 0.03-0.33l8.47 8.39C33.72 19.33 33.71 19.45 33.71 19.56"/>
        <path fill="#8D241D" d="M33.74 19.23l-8.47-8.39c0-0.08 0.01-0.19 0.03-0.28l8.46 8.38C33.76 19.03 33.75 19.13 33.74 19.23"/>
        <path fill="#90261E" d="M33.76 18.94l-8.46-8.38c0.02-0.09 0.03-0.17 0.05-0.26l8.47 8.38C33.81 18.77 33.79 18.86 33.76 18.94"/>
        <path fill="#942820" d="M33.82 18.69l-8.47-8.38c0.02-0.08 0.04-0.15 0.06-0.23l8.47 8.38C33.87 18.53 33.84 18.6 33.82 18.69"/>
        <path fill="#972920" d="M33.88 18.45l-8.47-8.38c0.03-0.08 0.04-0.15 0.08-0.23l8.47 8.38C33.94 18.29 33.91 18.38 33.88 18.45"/>
        <path fill="#9A2C21" d="M33.96 18.22l-8.47-8.38c0.02-0.07 0.05-0.14 0.08-0.22l8.47 8.39C34.01 18.08 33.99 18.16 33.96 18.22"/>
        <path fill="#9D2C22" d="M34.05 18.02l-8.47-8.39c0.03-0.08 0.06-0.14 0.09-0.2l8.46 8.37C34.11 17.86 34.07 17.93 34.05 18.02"/>
        <path fill="#A22C23" d="M34.13 17.8l-8.46-8.37c0.03-0.07 0.07-0.14 0.1-0.21l8.48 8.38C34.21 17.67 34.18 17.73 34.13 17.8"/>
        <path fill="#A72D24" d="M34.25 17.6l-8.48-8.38c0.04-0.07 0.08-0.14 0.11-0.21l8.49 8.38C34.32 17.46 34.29 17.53 34.25 17.6"/>
        <path fill="#AA3025" d="M34.37 17.39l-8.48-8.38c0.05-0.08 0.09-0.14 0.13-0.2l8.48 8.38C34.45 17.25 34.41 17.32 34.37 17.39"/>
        <path fill="#AE3125" d="M34.5 17.19l-8.48-8.38c0.05-0.06 0.1-0.13 0.15-0.2l8.47 8.38C34.6 17.05 34.55 17.12 34.5 17.19"/>
        <path fill="#B13126" d="M34.65 16.99l-8.47-8.38c0.05-0.08 0.11-0.14 0.17-0.21l8.46 8.39C34.75 16.85 34.7 16.92 34.65 16.99"/>
        <path fill="#B43327" d="M34.81 16.78l-8.46-8.39c0.06-0.08 0.13-0.14 0.2-0.21l8.47 8.37C34.94 16.63 34.87 16.7 34.81 16.78"/>
        <path fill="#B63527" d="M35.01 16.56l-8.47-8.37c0.08-0.08 0.16-0.16 0.24-0.24l8.46 8.38C35.18 16.41 35.09 16.49 35.01 16.56"/>
        <path fill="#BB3727" d="M35.25 16.33l-8.46-8.38c0.09-0.08 0.21-0.17 0.31-0.25l8.47 8.38C35.46 16.17 35.36 16.25 35.25 16.33"/>
        <path fill="#BD3827" d="M35.56 16.09l-8.47-8.38c0.16-0.12 0.34-0.24 0.52-0.33l8.48 8.38C35.91 15.85 35.73 15.96 35.56 16.09"/>
        <path fill="#C23A28" d="M36.1 15.75l-8.48-8.38c0.29-0.16 0.58-0.28 0.88-0.36l8.47 8.38C36.66 15.48 36.37 15.6 36.1 15.75"/>
        <path fill="#BD3827" d="M36.97 15.39l-8.47-8.38c0.2-0.05 0.4-0.11 0.61-0.13l8.47 8.39C37.38 15.29 37.17 15.33 36.97 15.39"/>
        <path fill="#BB3727" d="M37.58 15.27l-8.47-8.39c0.07-0.01 0.14-0.03 0.22-0.03l8.47 8.39C37.71 15.25 37.64 15.26 37.58 15.27"/>
      </g>
    </g>
  </g>
  <path fill="#6E6D6E" d="M16.24 103.81c0 7.37-3.39 9.86-6.35 9.86 -3.43 0-6.18-3.13-6.18-9.84 0-6.92 3.11-9.84 6.38-9.84C13.52 93.99 16.24 97.19 16.24 103.81zM6.75 103.81c0 3.14 0.55 7.44 3.31 7.44 2.6 0 3.16-4.46 3.16-7.44 0-2.93-0.55-7.42-3.24-7.42C7.25 96.39 6.75 100.88 6.75 103.81z"/>
  <path fill="#6E6D6E" d="M19.6 100.22c0-2.91-0.12-4.63-0.17-5.97h2.69l0.15 2.44h0.08c1.07-1.99 2.56-2.71 4.06-2.71 3.35 0 5.52 3.51 5.52 9.77 0 7.09-2.91 9.91-5.92 9.91 -1.81 0-2.83-1.15-3.34-2.21h-0.08v9.47h-2.99V100.22zM22.59 106.37c0 0.54 0.04 1.1 0.16 1.57 0.59 2.72 1.97 3.19 2.8 3.19 2.52 0 3.35-3.48 3.35-7.3 0-3.94-0.95-7.26-3.39-7.26 -1.39 0-2.64 1.72-2.81 3.44 -0.08 0.44-0.12 0.95-0.12 1.47V106.37z"/>
  <path fill="#6E6D6E" d="M37.49 104.08c0 5.89 2.32 7.1 4.5 7.1 1.34 0 2.41-0.33 3.16-0.7l0.5 2.21c-1.06 0.54-2.67 0.89-4.21 0.89 -4.58 0-6.94-3.73-6.94-9.58 0-6.15 2.64-10.01 6.46-10.01 3.87 0 5.44 4.09 5.44 8.37 0 0.74-0.03 1.24-0.08 1.72H37.49zM43.48 101.84c0.04-3.79-1.38-5.5-2.83-5.5 -2.02 0-3.01 2.89-3.13 5.5H43.48z"/>
  <path fill="#6E6D6E" d="M49.67 99.18c0-2.24-0.12-3.38-0.16-4.93h2.65l0.16 2.32h0.08c0.82-1.52 2.36-2.59 4.38-2.59 2.64 0 4.61 1.94 4.61 6.53v12.82h-3.04v-12.25c0-2.3-0.44-4.53-2.64-4.53 -1.27 0-2.49 1.05-2.84 3.08 -0.12 0.47-0.15 1.05-0.15 1.74v11.97h-3.04V99.18z"/>
  <path fill="#CE3428" d="M65.13 110.2c0.67 0.42 1.86 0.99 3.08 0.99 1.69 0 2.79-1.07 2.79-2.77 0-1.45-0.52-2.44-2.44-3.73 -2.49-1.59-3.83-3.24-3.83-5.4 0-3.12 2.29-5.29 5.24-5.29 1.49 0 2.6 0.5 3.4 0.98l-0.8 2.29c-0.75-0.52-1.52-0.87-2.56-0.87 -1.62 0-2.44 1.17-2.44 2.44 0 1.27 0.47 1.97 2.37 3.28 2.21 1.42 3.94 3.16 3.94 5.78 0 3.83-2.61 5.68-5.76 5.68 -1.38 0-2.92-0.42-3.75-1.1L65.13 110.2z"/>
  <path fill="#CE3428" d="M80.73 89.81v4.45h3.66v2.31h-3.66v11.34c0 2.49 0.87 3.17 1.97 3.17 0.52 0 0.92-0.05 1.22-0.12l0.17 2.32c-0.57 0.18-1.27 0.3-2.25 0.3 -1.22 0-2.27-0.3-3.01-1.13 -0.77-0.86-1.12-2.18-1.12-4.81v-11.08h-2.32v-2.31h2.32v-3.22L80.73 89.81z"/>
  <path fill="#CE3428" d="M97.14 109c0 1.48 0.02 3.12 0.19 4.34h-2.72l-0.18-2h-0.12c-0.83 1.47-2.18 2.33-3.82 2.33 -2.54 0-4.51-2.14-4.51-5.45 0-4.81 3.83-6.9 8.12-6.95v-0.58c0-2.56-0.65-4.3-3.03-4.3 -1.17 0-2.26 0.35-3.14 0.99l-0.68-2.14c0.82-0.58 2.56-1.25 4.46-1.25 3.83 0 5.45 2.47 5.45 6.75V109zM94.19 103.46c-1.57 0-5.27 0.3-5.27 4.43 0 2.54 1.27 3.41 2.34 3.41 1.36 0 2.46-0.99 2.81-2.89 0.07-0.35 0.12-0.75 0.12-1.1V103.46z"/>
  <path fill="#CE3428" d="M110.73 112.87c-0.65 0.4-1.8 0.7-3.14 0.7 -4.18 0-6.98-3.34-6.98-9.64 0-5.5 2.75-9.94 7.52-9.94 1.03 0 2.14 0.27 2.7 0.6l-0.61 2.48c-0.37-0.21-1.17-0.51-2.16-0.51 -3.08 0-4.41 3.61-4.41 7.37 0 4.46 1.69 7.14 4.48 7.14 0.8 0 1.5-0.17 2.19-0.52L110.73 112.87z"/>
  <path fill="#CE3428" d="M116.29 103.13h0.07c0.37-0.75 0.68-1.5 1.03-2.12l3.78-6.75h3.29l-5.05 8.05 5.52 11.03h-3.4l-4.13-8.99 -1.1 1.79v7.2h-3.01V86.06h3.01V103.13z"/>
  <path fill="#CECCCB" d="M129.71 111.97c0 0.88-0.7 1.58-1.61 1.58 -0.91 0-1.62-0.7-1.62-1.58 0-0.88 0.71-1.56 1.63-1.56C129.01 110.41 129.71 111.09 129.71 111.97zM126.89 111.97c0 0.72 0.54 1.26 1.22 1.26 0.67 0.01 1.19-0.54 1.19-1.25 0-0.69-0.51-1.26-1.21-1.26C127.43 110.72 126.89 111.3 126.89 111.97zM127.85 112.8h-0.36v-1.59c0.15 0 0.34-0.03 0.6-0.03 0.31 0 0.45 0.03 0.55 0.13 0.09 0.05 0.15 0.17 0.15 0.33 0 0.2-0.13 0.32-0.32 0.37v0.02c0.16 0.05 0.22 0.17 0.28 0.38 0.04 0.24 0.08 0.31 0.11 0.39h-0.39c-0.06-0.07-0.06-0.21-0.12-0.39 -0.04-0.17-0.12-0.23-0.31-0.23h-0.18V112.8zM127.86 111.92h0.18c0.19 0 0.36-0.08 0.36-0.22 0-0.15-0.12-0.24-0.36-0.24 -0.09 0-0.14 0.01-0.19 0.01V111.92z"/>
</svg>
