<?xml version="1.0" encoding="utf-8"?>
<!-- Generator: Adobe Illustrator 16.0.4, SVG Export Plug-In . SVG Version: 6.00 Build 0)  -->
<!DOCTYPE svg PUBLIC "-//W3C//DTD SVG 1.1//EN" "http://www.w3.org/Graphics/SVG/1.1/DTD/svg11.dtd">
<svg version="1.1"
	 id="svg1537" xmlns:inkscape="http://www.inkscape.org/namespaces/inkscape" xmlns:svg="http://www.w3.org/2000/svg" xmlns:cc="http://creativecommons.org/ns#" xmlns:sodipodi="http://sodipodi.sourceforge.net/DTD/sodipodi-0.dtd" xmlns:rdf="http://www.w3.org/1999/02/22-rdf-syntax-ns#" xmlns:dc="http://purl.org/dc/elements/1.1/" inkscape:version="0.48+devel r12177 custom" sodipodi:docname="rdo-logo.svg"
	 xmlns="http://www.w3.org/2000/svg" xmlns:xlink="http://www.w3.org/1999/xlink" x="0px" y="0px" width="100px" height="12px"
	 viewBox="0 0 100 12" enable-background="new 0 0 100 12" xml:space="preserve">
<sodipodi:namedview  fit-margin-left="0" borderopacity="1.0" inkscape:cy="10.682299" pagecolor="#ffffff" showgrid="false" bordercolor="#666666" inkscape:cx="84.152637" inkscape:zoom="1" fit-margin-top="0" inkscape:current-layer="g2133" fit-margin-bottom="0" fit-margin-right="0" inkscape:document-units="px" inkscape:pageopacity="0.0" inkscape:pageshadow="2" id="base">
	</sodipodi:namedview>
<g id="g2133_1_" transform="translate(-0.5,0)">
	<path id="path2109_1_" inkscape:connector-curvature="0" fill="#FFFFFF" d="M0.503,0.28v2.518h4.55c0.967,0,1.497,0.217,1.75,0.436
		h0.004l0.004,0.004C7.09,3.474,7.225,3.724,7.225,4.353c0,0.326-0.052,0.582-0.135,0.798v0.008L7.086,5.161
		C7.014,5.351,6.922,5.481,6.777,5.61L6.775,5.614L6.771,5.621C6.67,5.714,6.383,5.882,6.139,5.966
		C5.844,6.067,5.471,6.115,5.055,6.115H4.818L0.5,6.117v5.794h2.827V8.634h1.491h0.164c0.457,0.195,0.875,0.487,1.209,0.852
		c0.445,0.48,0.754,1.1,0.877,1.742c0.043,0.226,0.065,0.457,0.065,0.686l1.573-0.004v0.004h1.74c0-0.355-0.051-0.71-0.146-1.054
		c-0.329-1.203-1.21-2.185-2.349-2.656c0.4-0.165,0.792-0.383,1.156-0.692h0.002c0.453-0.382,0.814-0.873,1.037-1.42l0.004-0.011
		c0.223-0.542,0.326-1.127,0.326-1.726c0-1.182-0.486-2.336-1.392-3.059c-0.93-0.748-2.146-1.015-3.538-1.015H5.052L0.503,0.28
		L0.503,0.28z"/>
	<path id="path2107_1_" inkscape:connector-curvature="0" fill="#FFFFFF" d="M10.996,0.28v2.518h3.244
		c0.673,0,1.295,0.068,1.812,0.247c0.45,0.156,0.837,0.365,1.103,0.62c0.244,0.235,0.477,0.588,0.619,0.964
		c0.147,0.386,0.226,0.899,0.225,1.425c0,0.506-0.076,1.008-0.221,1.395c-0.147,0.393-0.381,0.758-0.631,1.009
		c-0.277,0.278-0.67,0.507-1.108,0.669c-0.513,0.19-1.117,0.268-1.758,0.266h-0.5V6.12h-2.827v5.794h2.827h0.653
		c0.924,0.004,1.912-0.085,2.892-0.409c0.745-0.246,1.524-0.615,2.196-1.218c0.593-0.53,1.049-1.187,1.352-1.905
		c0.324-0.771,0.436-1.572,0.436-2.322V6.054c0-0.761-0.107-1.58-0.445-2.371c-0.309-0.719-0.774-1.364-1.374-1.881
		C18.8,1.21,18.018,0.875,17.293,0.65c-0.984-0.306-1.963-0.37-2.867-0.37h-0.185H10.996z"/>
	<path id="path6220_1_" inkscape:connector-curvature="0" fill="#FFFFFF" d="M27.684,3.019c1.715,0,3.073,1.363,3.073,3.078
		s-1.358,3.076-3.073,3.076s-3.076-1.361-3.076-3.076C24.605,4.382,25.969,3.019,27.684,3.019z M27.684,0.192
		c-3.244,0-5.903,2.66-5.903,5.904c0,3.242,2.661,5.903,5.903,5.903c3.243,0,5.9-2.661,5.9-5.903
		C33.583,2.853,30.927,0.192,27.684,0.192z"/>
</g>
<g>
	<path fill="#FFFFFF" d="M44.891,10.039V5.983c0-0.045,0.002-0.096,0.004-0.153c0-0.06,0.002-0.119,0.004-0.179
		c0.002-0.061,0.004-0.116,0.006-0.168c0.002-0.051,0.005-0.092,0.009-0.121c-0.041,0.125-0.08,0.236-0.119,0.335
		s-0.078,0.194-0.118,0.286l-1.914,4.191l-1.926-4.191c-0.041-0.092-0.08-0.188-0.118-0.286s-0.077-0.21-0.118-0.335
		c0.004,0.029,0.006,0.07,0.008,0.121c0.002,0.05,0.002,0.107,0.004,0.168c0.003,0.061,0.005,0.119,0.007,0.179
		s0.003,0.108,0.003,0.153v4.056h-1.523v-7.89h1.545l1.937,4.352c0.041,0.096,0.078,0.188,0.11,0.271
		c0.033,0.086,0.064,0.176,0.094,0.268c0.029-0.091,0.061-0.181,0.093-0.268c0.033-0.086,0.069-0.176,0.11-0.271l1.969-4.352h1.452
		v7.89H44.891L44.891,10.039z"/>
	<path fill="#FFFFFF" d="M53.624,10.039l-0.61-1.636h-3.041l-0.606,1.636H47.73l3.021-7.89h1.484l3.021,7.89H53.624z M51.742,4.966
		c-0.039-0.096-0.082-0.209-0.128-0.342c-0.048-0.132-0.087-0.254-0.118-0.367c-0.03,0.112-0.068,0.235-0.116,0.367
		c-0.049,0.131-0.092,0.246-0.132,0.342l-0.781,2.051h2.053L51.742,4.966z"/>
	<path fill="#FFFFFF" d="M61.512,10.039L58.38,5.438c-0.052-0.076-0.106-0.17-0.168-0.282c-0.06-0.112-0.112-0.215-0.157-0.312
		c0.012,0.084,0.021,0.185,0.026,0.297c0.005,0.113,0.008,0.213,0.008,0.297v4.601h-1.514v-7.89h1.431l3.055,4.543
		c0.047,0.074,0.102,0.166,0.164,0.275s0.117,0.217,0.166,0.318c-0.011-0.105-0.021-0.214-0.025-0.322
		c-0.006-0.107-0.01-0.197-0.01-0.271V2.149h1.509v7.89H61.512L61.512,10.039z"/>
	<path fill="#FFFFFF" d="M70.073,10.039l-0.611-1.636H66.42l-0.605,1.636H64.18l3.021-7.89h1.484l3.021,7.89H70.073z M68.191,4.966
		c-0.041-0.096-0.084-0.209-0.129-0.342c-0.049-0.132-0.088-0.254-0.119-0.367c-0.028,0.112-0.067,0.235-0.115,0.367
		c-0.048,0.131-0.092,0.246-0.133,0.342l-0.78,2.051h2.053L68.191,4.966z"/>
	<path fill="#FFFFFF" d="M75.665,10.175c-0.407,0-0.774-0.053-1.104-0.158c-0.33-0.106-0.625-0.254-0.881-0.439
		c-0.257-0.188-0.479-0.41-0.664-0.668C72.827,8.65,72.672,8.37,72.551,8.07c-0.119-0.302-0.209-0.62-0.269-0.956
		c-0.058-0.335-0.089-0.676-0.089-1.02c0-0.319,0.031-0.643,0.091-0.969c0.062-0.326,0.153-0.641,0.28-0.943
		s0.285-0.586,0.474-0.851s0.412-0.493,0.671-0.688c0.258-0.193,0.551-0.348,0.875-0.459c0.324-0.11,0.686-0.168,1.081-0.168
		c0.382,0,0.719,0.049,1.009,0.145c0.293,0.096,0.551,0.221,0.775,0.376c0.229,0.156,0.423,0.335,0.59,0.54
		c0.166,0.203,0.316,0.414,0.453,0.63l-1.344,0.765c-0.088-0.131-0.183-0.258-0.285-0.377C76.76,3.976,76.65,3.87,76.531,3.779
		s-0.25-0.165-0.395-0.218c-0.142-0.053-0.301-0.079-0.473-0.079c-0.246,0-0.462,0.036-0.648,0.112
		c-0.188,0.074-0.352,0.178-0.492,0.308c-0.142,0.129-0.258,0.28-0.354,0.454c-0.094,0.172-0.171,0.354-0.229,0.549
		c-0.059,0.195-0.101,0.395-0.127,0.597c-0.026,0.205-0.039,0.402-0.039,0.591c0,0.334,0.035,0.658,0.105,0.971
		c0.069,0.314,0.18,0.594,0.331,0.837s0.349,0.44,0.589,0.586c0.241,0.147,0.529,0.221,0.866,0.221c0.19,0,0.37-0.032,0.535-0.103
		c0.168-0.067,0.313-0.159,0.438-0.274c0.125-0.114,0.223-0.251,0.295-0.409c0.069-0.156,0.105-0.326,0.105-0.506V7.349h-1.341
		V5.903h2.892v1.16c0,0.507-0.072,0.953-0.225,1.341c-0.149,0.388-0.357,0.711-0.618,0.974c-0.263,0.264-0.572,0.463-0.929,0.598
		C76.466,10.107,76.079,10.175,75.665,10.175z"/>
	<path fill="#FFFFFF" d="M80.168,10.039v-7.89h5.387v1.445h-3.861v1.657h2.271v1.44h-2.271v1.904h4.098v1.44L80.168,10.039
		L80.168,10.039L80.168,10.039z"/>
	<path fill="#FFFFFF" d="M87.312,10.039v-7.89h3.662c0.5,0,0.918,0.068,1.252,0.207c0.338,0.137,0.606,0.318,0.812,0.546
		c0.204,0.228,0.352,0.489,0.439,0.786s0.131,0.607,0.131,0.93c0,0.225-0.03,0.451-0.096,0.68c-0.063,0.229-0.16,0.447-0.289,0.651
		c-0.127,0.206-0.287,0.392-0.479,0.56c-0.189,0.166-0.412,0.295-0.666,0.387l1.529,3.143h-1.711l-1.476-2.943h-1.589v2.943
		L87.312,10.039L87.312,10.039L87.312,10.039z M90.998,5.652c0.193,0,0.357-0.028,0.488-0.084c0.134-0.058,0.238-0.134,0.318-0.229
		c0.082-0.095,0.141-0.205,0.176-0.33c0.033-0.125,0.051-0.254,0.051-0.39c0-0.125-0.016-0.249-0.047-0.371
		c-0.032-0.123-0.086-0.231-0.164-0.33c-0.076-0.097-0.184-0.175-0.316-0.233c-0.132-0.059-0.304-0.088-0.507-0.088h-2.161v2.058
		h2.161L90.998,5.652L90.998,5.652z"/>
</g>
</svg>
