<?xml version="1.0" encoding="utf-8"?>
<!DOCTYPE svg PUBLIC "-//W3C//DTD SVG 1.1//EN" "http://www.w3.org/Graphics/SVG/1.1/DTD/svg11.dtd">
<svg version="1.1" id="Layer_1" xmlns="http://www.w3.org/2000/svg" xmlns:xlink="http://www.w3.org/1999/xlink" x="0px" y="0px" viewBox="0 0 945 308" style="enable-background:new 0 0 945 308;" xml:space="preserve">
  <defs>
    <style type="text/css">
			.filtered{
				filter: url(#filter);
			}
			.st0{fill:#E6E6E6;}
			.st1{fill:#CCCCCC;}
			.st2{fill:#B3B3B3;}
			.st3{fill:#808080;}
			.st4{fill:#F2F2F2;}
			.st5{fill:none;stroke:#808080;stroke-width:7;stroke-miterlimit:10;}
			.st6{fill:#535353;}
		</style>
    <filter id="filter">
      <feGaussianBlur in="SourceAlpha" result="blurOut" stdDeviation="3"/>
      <feOffset in="blurOut" result="dropBlur" dx="3" dy="3"/>
      <feComposite operator="over" in="SourceGraphic" in2="dropBlur" result="final"/>
    </filter>
  </defs>
  <g id="Owl" class="filtered">
    <path class="st0" d="M798.8,276c-73.9,0-134-60.1-134-134S724.9,8,798.8,8s134,60.1,134,134S872.7,276,798.8,276z"/>
    <path class="st1" d="M798.8,13.8C869.5,13.8,927,71.3,927,142s-57.5,128.2-128.2,128.2S670.6,212.7,670.6,142
		S728.1,13.8,798.8,13.8 M798.8,2.2C721.6,2.2,659,64.8,659,142s62.5,139.9,139.8,139.9s139.8-62.6,139.8-139.8S876,2.2,798.8,2.2
		L798.8,2.2z"/>
    <path class="st2" d="M814.9,192.7c0-0.7,0-1.3-0.1-2c-0.9,8.6-7.9,15.4-16.4,15.4s-15.5-6.7-16.4-15.4c-0.1,0.7-0.1,1.3-0.1,2
		c0,9.6,7.4,17.3,16.5,17.3S814.9,202.2,814.9,192.7z"/>
    <path class="st2" d="M773.1,192.7c0-0.7,0-1.3-0.1-2c-0.9,8.6-7.9,15.4-16.4,15.4s-15.5-6.7-16.4-15.4c-0.1,0.7-0.1,1.3-0.1,2
		c0,9.6,7.4,17.3,16.5,17.3S773.1,202.2,773.1,192.7z"/>
    <path class="st2" d="M840.1,206c-8.5,0-15.5-6.7-16.4-15.4c-0.1,0.7-0.1,1.3-0.1,2c0,9.6,7.4,17.3,16.5,17.3s16.5-7.8,16.5-17.3
		c0-0.7,0-1.3-0.1-2C855.6,199.3,848.6,206,840.1,206z"/>
    <path class="st2" d="M778.1,231.3c-8.5,0-15.5-6.7-16.4-15.4c-0.1,0.7-0.1,1.3-0.1,2c0,9.6,7.4,17.3,16.5,17.3s16.5-7.8,16.5-17.3
		c0-0.7,0-1.3-0.1-2C793.6,224.6,786.6,231.3,778.1,231.3z"/>
    <path class="st2" d="M819.9,231.3c-8.5,0-15.5-6.7-16.4-15.4c-0.1,0.7-0.1,1.3-0.1,2c0,9.6,7.4,17.3,16.5,17.3s16.5-7.8,16.5-17.3
		c0-0.7,0-1.3-0.1-2C835.3,224.6,828.3,231.3,819.9,231.3z"/>
    <path
      class="st2"
      d="M901,71.6c10.6-18.2,20.8-39.7,30.5-62.7h-1.1c-1.7,1-3.4,2.5-5.1,3.6c0.7-1.6,1.4-3.6,2-4.6h-1.1
		c-3,1-6,3.4-9,5.2c1-2.3,1.9-4.2,2.9-7.2h-1c-12.4,9-25.7,16.4-39.6,22.2C860.4,12.1,830.6,2,797,2c-33.4,0-63,10.2-82.1,26
		c-14.1-5.9-27.5-13.1-40-21.7c1,2.4,1.9,4.8,2.9,7.2c-2.9-1.7-5.7-3.5-8.5-5.3c0.9,2.2,1.9,4.4,2.8,6.6c-2.5-1.5-5-3.1-7.5-4.7
		c9,21.7,18.4,41.1,28.2,58.3c0,0.4,0,0.8,0,1.2c0,21.3,15.3,40.3,39.2,52.7c21,21.5,43.2,32.9,66.1,32.9
		c23.7,0,46.5-12.5,68.1-35.4C886.7,107.9,900,90.7,901,71.6z"/>
    <path
      class="st3"
      d="M809.5,100.9v-40h5.9c0,0,0-0.3-0.1-0.6l6.4,0.9c0,0-0.2-1-0.1-1.7c-1.9-9.9-2.9-21.4-3.4-38.8v0.1
		c-2.4,8.5-5.3,15.6-8.2,21.9c-3.1-11.3-6-23.7-9.1-40.7l0,0c-3.1,18-6.1,30.6-9.4,41.8c-3.1-6.5-6-14-8.7-23l0,0
		c-0.5,17.4-1.3,28.9-3.4,38.9c0.1,0.7-0.1,1.9-0.1,1.9l7-1.1c0,0.4,0,0.7-0.1,0.7h2.8v40h-41.3c0.2,3,0.5,2.6,0.7,3.8
		c18.9,16.3,33.6,36.2,49.8,65.2l0,0c16.1-28,30.8-48.6,49.4-64.9c0.2-1.3,0.6-1.1,0.8-4.1h-39L809.5,100.9L809.5,100.9z"/>
    <path class="st3" d="M658.9,142.1c0,42.8,19.7,81.6,51.8,110.1c10.3-27.3,16.3-59.8,16.3-94.6c0-44.6-9.8-85.3-26-116.4
		C674.7,68.7,658.9,103.8,658.9,142.1z"/>
    <path class="st3" d="M899.9,41.6c-15.8,31-25.4,71.3-25.4,115.5c0,34.4,5.8,66.6,15.9,93.7c31.3-28.5,50.6-66.9,50.6-109.3
		C941,103.7,925.6,68.9,899.9,41.6z"/>
    <path class="st4" d="M740.9,30.8c-31.9,1.4-57.9,26.7-58,56.5c-0.1,29.8,22.2,54.4,49.9,54.9c27.6,0.5,53.6-24.7,58-56.5
		C795.2,54,772.9,29.4,740.9,30.8z"/>
    <path class="st4" d="M857.3,30.8c-31.9-1.4-54.2,23.2-49.9,54.9c4.4,31.7,30.3,57,58,56.5c27.6-0.5,50-25.1,49.9-54.9
		C915.2,57.5,889.2,32.2,857.3,30.8z"/>
    <path class="st5" d="M741.9,28.8c-31.9,1.4-57.9,26.7-58,56.5c-0.1,29.8,22.2,54.4,49.9,54.9c27.6,0.5,53.6-24.7,58-56.5
		C796.2,52,773.9,27.4,741.9,28.8z"/>
    <path class="st5" d="M858.3,28.8c-31.9-1.4-54.2,23.2-49.9,54.9c4.4,31.7,30.3,57,58,56.5c27.6-0.5,50-25.1,49.9-54.9
		C916.2,55.5,890.2,30.2,858.3,28.8z"/>
    <circle class="st6" cx="744.5" cy="88.4" r="18.8"/>
    <circle class="st6" cx="854.3" cy="88.4" r="18.8"/>
    <path class="st3" d="M109.6,75.9v168h-42v-168H3V43.5h171.5v32.4H109.6z"/>
    <path
      class="st3"
      d="M135,243.9V126.1c0-8.4-0.1-15.5-0.4-21.1c-0.2-5.6-0.5-10.6-0.8-15h38.1c0.3,1.7,0.7,6.9,1.1,15.6
		c0.5,8.7,0.7,14.4,0.7,17.3h0.6c3.9-10.8,7.3-18.4,10.4-22.8c3-4.4,6.6-7.7,10.8-9.8s9.4-3.2,15.6-3.2c5.1,0,9.2,0.7,12.4,2.1v33.4
		c-6.4-1.4-12.1-2.1-17.1-2.1c-10,0-17.7,4-23.3,12.1c-5.5,8.1-8.3,20-8.3,35.8v75.5H135z"/>
    <path class="st3" d="M234.9,62.2V32.8h40v29.4H234.9z M234.9,243.9V90h40v153.9H234.9z"/>
    <path
      class="st3"
      d="M433.5,166.2c0,25.7-5.1,45.5-15.4,59.5s-24.8,21-43.6,21c-10.8,0-20.2-2.3-28.2-7s-14.2-11.4-18.4-20.3H327
		c0.6,2.8,0.9,11.5,0.9,25.9v59h-40V125.4c0-14.5-0.4-26.3-1.1-35.4h38.8c0.5,1.7,0.9,5.1,1.2,10.1c0.3,5,0.5,10,0.5,14.9h0.6
		c9-18.9,25.4-28.3,49.2-28.3c17.9,0,31.8,6.9,41.7,20.7C428.6,121.2,433.5,140.8,433.5,166.2z M391.9,166.2
		c0-34.5-10.6-51.8-31.7-51.8c-10.6,0-18.8,4.6-24.4,13.9c-5.6,9.3-8.5,22.3-8.5,39c0,16.6,2.8,29.4,8.5,38.5
		c5.6,9.1,13.7,13.6,24.1,13.6C381.2,219.4,391.9,201.7,391.9,166.2z"/>
    <path class="st3" d="M445.2,243.9V32.8h40v211.1H445.2z"/>
    <path
      class="st3"
      d="M568.4,246.7c-23.1,0-40.9-6.8-53.3-20.6c-12.4-13.7-18.6-33.7-18.6-59.9c0-25.4,6.3-44.9,18.9-58.6
		C528,93.9,545.9,87.1,569,87.1c22.1,0,39,7.3,50.6,22c11.7,14.6,17.5,36.1,17.5,64.4v1.1h-98.7c0,15,2.8,26.3,8.3,33.9
		s13.4,11.4,23.7,11.4c14.1,0,23-6.1,26.7-18.3l37.7,3.3C623.9,232.8,601.8,246.7,568.4,246.7z M568.4,112.3
		c-9.4,0-16.6,3.3-21.7,9.8c-5.1,6.5-7.8,15.7-8,27.5h59.7c-0.8-12.4-3.7-21.7-9-27.9C584.2,115.4,577.2,112.3,568.4,112.3z"/>
  </g>
</svg>
